<svg width="354" height="354" viewBox="0 0 354 354" fill="none" xmlns="http://www.w3.org/2000/svg">
<rect y="92.5227" width="349.977" height="152.864" rx="20.1136" fill="#F8F8F8"/>
<line x1="326.847" y1="123.699" x2="288.631" y2="123.699" stroke="white" stroke-width="6.03409" stroke-linecap="round"/>
<line x1="330.869" y1="204.153" x2="19.1081" y2="204.153" stroke="white" stroke-width="6.03409" stroke-linecap="round"/>
<line x1="330.869" y1="224.267" x2="19.1081" y2="224.267" stroke="white" stroke-width="6.03409" stroke-linecap="round"/>
<path d="M135.883 265.5C130.354 267.859 119.524 277.252 127.59 292.393C135.884 307.962 156.618 316.455 135.883 341.932" stroke="#F8F8F8" stroke-width="6.03409" stroke-linecap="round"/>
<path d="M176.111 265.5C170.582 267.859 159.751 277.252 167.817 292.393C176.111 307.962 196.845 316.455 176.111 341.932" stroke="#F8F8F8" stroke-width="6.03409" stroke-linecap="round"/>
<path d="M216.338 265.5C210.809 267.859 199.979 277.252 208.044 292.393C216.338 307.962 237.072 316.455 216.338 341.932" stroke="#F8F8F8" stroke-width="6.03409" stroke-linecap="round"/>
</svg>
