<?xml version="1.0" encoding="UTF-8"?>
<!DOCTYPE svg PUBLIC "-//W3C//DTD SVG 1.1//EN" "http://www.w3.org/Graphics/SVG/1.1/DTD/svg11.dtd">
<svg xmlns="http://www.w3.org/2000/svg" xmlns:xlink="http://www.w3.org/1999/xlink">
	<defs>
		<clipPath id="certificate-a">
			<path fill="#fff" d="M0 0h23.516v24H0z"/>
		</clipPath>

		<clipPath id="check-a">
			<path fill="#fff" d="M0 0h23.516v24H0z"/>
		</clipPath>

		<clipPath id="world-a">
			<path fill="#fff" d="M0 0h23.516v24H0z"/>
		</clipPath>

		<clipPath id="zip-a">
			<path fill="#fff" d="M0 0h24v24H0z"/>
		</clipPath>
	</defs>
<symbol id="arrow-right-small" viewBox="0 0 24 24">
	<path fill="currentColor" fill-rule="evenodd" d="m13.293 16 .353-.354L17.293 12H6v-1h11.293l-3.647-3.646L13.293 7 14 6.293l.354.353 4.5 4.5.353.354-.353.354-4.5 4.5-.354.353-.707-.707Z" clip-rule="evenodd"/>
</symbol>
<symbol id="arrow-right" viewBox="0 0 24 24">
	<path fill="currentColor" fill-rule="evenodd" d="m13.793 18 .353-.354L19.793 12H3v-1h16.793l-5.647-5.646L13.793 5l.707-.707.354.353 6.5 6.5.353.354-.353.354-6.5 6.5-.354.353-.707-.707Z" clip-rule="evenodd"/>
</symbol>
<symbol id="bookmark" viewBox="0 0 24 24">
	<path fill="currentColor" fill-rule="evenodd" d="M5 2h14v20.869l-1.555-1.037L12 18.202l-5.445 3.63L5 22.87V2Zm7 15 5 3.333L18 21V3H6v18l1-.667L12 17Z" clip-rule="evenodd"/>
</symbol>
<symbol id="box" viewBox="0 0 24 24">
	<path fill="#151515" fill-rule="evenodd" d="m11.268.939.227.116 4.9 2.5 4.899 2.5.273.139V16.793l-.256.143-9.798 5.5-.245.137-.245-.137-9.798-5.5-.255-.143V6.194l.272-.14 9.799-5 .227-.115ZM1.97 7.354v8.853l8.798 4.939v-8.853L6.124 9.686 1.97 7.354Zm9.798 4.939v8.853l8.799-4.939V7.354l-8.799 4.939Zm8.24-5.772-3.835-1.957L7.41 9.26l3.86 2.167 8.739-4.906ZM6.375 8.68l8.713-4.67-3.82-1.949-8.74 4.46L6.376 8.68Z" clip-rule="evenodd"/>
</symbol>
<symbol id="calendar" viewBox="0 0 24 24">
	<path fill="#151515" fill-rule="evenodd" d="M7 5v2h1V5h8v2h1V5h4v5H3V5h4Zm0-1H2v18h20V4h-5V2h-1v2H8V2H7v2Zm-4 7h18v10H3V11Z" clip-rule="evenodd"/>
</symbol>
<symbol id="certificate" viewBox="0 0 24 24">
	<g clip-path="url(#certificate-a)">
		<path fill="#151515" fill-rule="evenodd" d="M.97 0H22.547v7h-1V1H1.97v18h9.798v1H.97V0Zm12.758 6H4.889V5h8.839v1Zm-4.42 4h.5V9H4.89v1h4.42Zm10.279 7.593a4.835 4.835 0 0 1-1.95.407 4.835 4.835 0 0 1-1.95-.407v4.353l1.634-1.333.316-.258.316.258 1.634 1.333v-4.353Zm1-.59A5.028 5.028 0 0 0 22.557 13c0-2.742-2.184-5-4.92-5-2.736 0-4.92 2.258-4.92 5 0 1.629.771 3.087 1.97 4.003v7.051l.817-.667 2.133-1.742 2.134 1.742.816.667v-7.051ZM17.637 17c2.165 0 3.92-1.79 3.92-4s-1.755-4-3.92-4c-2.164 0-3.92 1.79-3.92 4s1.756 4 3.92 4Z" clip-rule="evenodd"/>
	</g>

</symbol>
<symbol id="check" viewBox="0 0 24 24">
	<g clip-path="url(#check-a)">
		<path fill="#151515" fill-rule="evenodd" d="M11.268 23c6.254 0 11.289-5.168 11.289-11.5S17.522 0 11.268 0C5.015 0-.02 5.168-.02 11.5S5.015 23 11.268 23Zm10.289-11.5c0 5.799-4.606 10.5-10.289 10.5C5.586 22 .98 17.299.98 11.5S5.586 1 11.268 1c5.683 0 10.289 4.701 10.289 10.5Zm-6.012-1.65.35-.357-.714-.7-.35.357-4.542 4.636-2.583-2.636-.35-.357-.714.7.35.357 2.94 3 .357.364.357-.364 4.899-5Z" clip-rule="evenodd"/>
	</g>

</symbol>
<symbol id="download" viewBox="0 0 24 24">
	<path fill="#151515" fill-rule="evenodd" d="M8.354 10.646 8 10.293 7.293 11l.353.354 4.5 4.5.354.353.354-.353 4.5-4.5.353-.354-.707-.707-.354.353L13 14.293V2h-1v12.293l-3.646-3.647ZM4 14.5V14H3v8h19v-8h-1v7H4v-6.5Z" clip-rule="evenodd"/>
</symbol>
<symbol id="eye-off" viewBox="0 0 24 24">
	<path fill="#ADB0B4" fill-rule="evenodd" d="m4.39 22.312 16-20-.78-.624-2.796 3.495C15.415 4.474 13.804 4 12 4 8.313 4 5.443 5.975 3.521 7.896a19.15 19.15 0 0 0-2.764 3.525 10.848 10.848 0 0 0-.184.317l-.01.019-.003.005v.002H.558L1 12l-.441-.235a.5.5 0 0 0 0 .47L1 12l-.441.236.002.004.006.01.02.038.08.139c.069.119.17.289.305.5.268.42.665 1.002 1.186 1.652.96 1.197 2.353 2.645 4.144 3.743L3.61 21.688l.78.624Zm2.542-4.777c-1.71-1.024-3.056-2.412-3.993-3.581A18.03 18.03 0 0 1 1.576 12l.038-.065a18.152 18.152 0 0 1 2.614-3.331C6.059 6.774 8.689 5 12 5c1.545 0 2.939.385 4.174.982l-2.262 2.827a4 4 0 0 0-4.996 6.245l-1.984 2.48Zm2.61-3.262a3 3 0 0 1 3.746-4.682l-3.746 4.682Zm11.957-3.658c-.705-.954-1.745-2.167-3.087-3.222l.617-.786c1.434 1.126 2.534 2.413 3.274 3.414a18.161 18.161 0 0 1 1.061 1.605l.056.1.015.027.004.008.002.002v.001L23 12l.441.236-.001.002-.003.005-.01.019a6.616 6.616 0 0 1-.184.317c-.128.213-.317.515-.566.877a19.158 19.158 0 0 1-2.198 2.648C18.557 18.023 15.687 20 12 20a10.27 10.27 0 0 1-3.153-.497l.306-.953c.881.284 1.831.45 2.847.45 3.313 0 5.943-1.775 7.771-3.604a18.147 18.147 0 0 0 2.615-3.331l.038-.065a17.174 17.174 0 0 0-.925-1.385ZM23 12l.441-.235a.5.5 0 0 1 0 .47L23 12Z" clip-rule="evenodd"/>
</symbol>
<symbol id="eye" viewBox="0 0 24 24">
	<path fill="#151515" fill-rule="evenodd" d="M2.146 12.888a15.73 15.73 0 0 1-.532-.823L1.576 12l.038-.065a18.146 18.146 0 0 1 2.614-3.331C6.059 6.774 8.689 5 12 5c3.313 0 5.943 1.775 7.771 3.604a18.142 18.142 0 0 1 2.615 3.331l.038.065-.038.065a18.141 18.141 0 0 1-2.614 3.331C17.941 17.226 15.311 19 12 19c-3.313 0-5.943-1.775-7.771-3.604-.911-.91-1.611-1.823-2.083-2.508Zm21.295-1.124L23 12l.441.236-.001.002-.003.005-.01.019a11.066 11.066 0 0 1-.183.318 19.158 19.158 0 0 1-2.765 3.524C18.557 18.024 15.687 20 12 20c-3.687 0-6.557-1.975-8.479-3.896A19.15 19.15 0 0 1 .757 12.58a10.848 10.848 0 0 1-.184-.318l-.01-.019-.003-.005v-.002H.558L1 12a53.319 53.319 0 0 1-.441-.236l.001-.002.003-.005.01-.019a16.732 16.732 0 0 1 .75-1.194A19.146 19.146 0 0 1 3.52 7.896C5.443 5.976 8.313 4 12 4c3.687 0 6.557 1.975 8.479 3.896a19.154 19.154 0 0 1 2.764 3.525 11.066 11.066 0 0 1 .184.317l.01.019.003.005v.002h.001ZM23 12l.441-.235a.5.5 0 0 1 0 .47L23 12ZM.559 11.765 1 12l-.441.235a.5.5 0 0 1 0-.47ZM12 16a4 4 0 1 0 0-8 4 4 0 0 0 0 8Zm3-4a3 3 0 1 1-6 0 3 3 0 0 1 6 0Z" clip-rule="evenodd"/>
</symbol>
<symbol id="lightning" viewBox="0 0 24 24">
	<path stroke="#151515" d="M7 12.5 13.5 1 11 10.5h6.5l-8 12 4-10H7Z"/>
</symbol>
<symbol id="location" viewBox="0 0 24 24">
	<path fill="transparent" stroke="currentColor" d="M16.5 9.333c0 .995-.316 2.136-.819 3.311-.5 1.17-1.172 2.34-1.85 3.387a36.725 36.725 0 0 1-2.331 3.19 36.746 36.746 0 0 1-2.33-3.19c-.679-1.046-1.35-2.217-1.851-3.387-.503-1.175-.819-2.316-.819-3.31 0-2.656 2.224-4.834 5-4.834s5 2.178 5 4.833Z"/>
	<path fill="transparent" stroke="currentColor" d="M10.21 10.882a1.68 1.68 0 0 0 2.375.011c.65-.65.65-1.713-.011-2.374a1.679 1.679 0 0 0-2.374-.012c-.65.65-.65 1.714.01 2.375Z"/>
</symbol>
<symbol id="pdf" viewBox="0 0 24 24">
	<path fill="#151515" fill-rule="evenodd" d="M.5 4H0v17h24V4H.5ZM1 20V5h22v15H1ZM4.315 8.6h2.22c1.644 0 2.58.996 2.58 2.712 0 1.764-.936 2.736-2.58 2.736H5.527V17H4.315V8.6Zm1.212 4.296h.996c.912 0 1.356-.504 1.356-1.584 0-1.032-.444-1.56-1.356-1.56h-.996v3.144ZM12.25 17h-2.1V8.6h2.088c1.631 0 2.591.96 2.591 2.616v3.144c0 1.668-.96 2.64-2.58 2.64Zm-.888-7.248v6.096h.888c.864 0 1.356-.516 1.356-1.512V11.24c0-.984-.48-1.488-1.356-1.488h-.888ZM20.227 8.6v1.14H17.48v2.508h2.532v1.104H17.48V17h-1.212V8.6h3.96Z" clip-rule="evenodd"/>
</symbol>
<symbol id="play" viewBox="0 0 20 26">
	<path fill="#151515" fill-rule="evenodd" d="m19.136 13-1.248.832-16 10.667-1.555 1.036V.465L1.888 1.5l16 10.667 1.248.832Zm-1.803 0-.901-.6L2.333 3l-1-.667V23.667l1-.667 14.099-9.4.901-.6Z" clip-rule="evenodd"/>
</symbol>
<symbol id="refresh" viewBox="0 0 24 24">
	<path fill="#151515" fill-rule="evenodd" d="M6.88 5.296c-1.401.996-2.587 2.28-3.299 3.556l2.725-.348.496-.063.126.992-.496.063-3.92.5-.562.072V5h1v2.957c.804-1.283 1.995-2.513 3.352-3.476C7.946 3.314 9.89 2.5 11.758 2.5c3.67 0 6.769 2.16 8.288 5.281l.22.45-.9.437-.219-.45C17.781 5.414 15.014 3.5 11.758 3.5c-1.594 0-3.338.704-4.877 1.796ZM4.15 15.332l.219.45c1.366 2.805 4.133 4.718 7.39 4.718 3.111 0 5.776-1.748 7.199-4.352l-2.727.348-.496.063-.127-.992.496-.063 3.92-.5.563-.072V20h-1v-2.944C17.95 19.72 15.089 21.5 11.758 21.5c-3.669 0-6.768-2.16-8.288-5.281l-.22-.45.9-.437Z" clip-rule="evenodd"/>
</symbol>
<symbol id="search-2" viewBox="0 0 24 24">
	<path fill="#ADB0B4" fill-rule="evenodd" d="M11 20a9 9 0 1 0 0-18 9 9 0 0 0 0 18Zm7.416-2.291A9.963 9.963 0 0 0 21 11c0-5.523-4.477-10-10-10S1 5.477 1 11s4.477 10 10 10a9.963 9.963 0 0 0 6.709-2.584l3.937 3.938.354.353.707-.707-.353-.354-3.938-3.937Z" clip-rule="evenodd"/>
</symbol>
<symbol id="search" viewBox="0 0 24 24">
	<path fill="transparent" stroke="currentColor" d="M8.113 15.469c2.365 2.364 6.179 2.374 8.52.034 2.34-2.341 2.33-6.155-.034-8.52-2.365-2.364-6.179-2.374-8.52-.033-2.34 2.34-2.33 6.155.034 8.519ZM8.106 15.722l-5.105 4.896"/>
</symbol>
<symbol id="settings" viewBox="0 0 24 24">
	<path fill="#151515" fill-rule="evenodd" d="M17 7v3h1V7h4.547V6H18V3h-1v3H1.95v1H17ZM7.35 17h.5v-1h-5.9v1h5.4ZM9 13v3h13.547v1H9v3H8v-7h1Z" clip-rule="evenodd"/>
</symbol>
<symbol id="upload" viewBox="0 0 24 24">
	<path fill="#151515" fill-rule="evenodd" d="M8.354 7.354 8 7.707 7.293 7l.354-.353 4.5-4.5.353-.354.354.354 4.5 4.5.353.353-.707.707-.353-.353L13 3.707V16h-1V3.707L8.354 7.354ZM4 14.5V14H3v8h19v-8h-1v7H4v-6.5Z" clip-rule="evenodd"/>
</symbol>
<symbol id="world" viewBox="0 0 24 24">
	<g clip-path="url(#world-a)">
		<path fill="#151515" fill-rule="evenodd" d="M1.001 11H4.41c.186-4.8 3.028-8.11 5.115-9.85C4.841 1.97 1.23 6.027 1.001 11Zm9.767-9.557C8.828 2.88 5.618 6.116 5.41 11h5.358V1.443Zm0 10.557h-5.35c.158 2.175 1.34 6.396 5.35 9.518V12ZM9.61 21.864C5.73 18.558 4.565 14.286 4.416 12H1.001c.23 5.004 3.884 9.08 8.609 9.864Zm3.353-.006c4.707-.799 8.343-4.867 8.572-9.858h-3.416c-.091 1.321-.532 3.14-1.439 5.001-.817 1.68-2.023 3.413-3.717 4.857ZM17.116 12h-5.348v9.537c1.86-1.417 3.159-3.218 4.013-4.973.843-1.732 1.244-3.395 1.335-4.564Zm.01-1h-5.358V1.443c1.94 1.436 5.151 4.673 5.358 9.557Zm1.001 0h3.408c-.228-4.974-3.84-9.031-8.523-9.85C15.1 2.89 17.94 6.2 18.127 11Zm-18.137.5C-.01 5.158 5.03 0 11.268 0s11.278 5.158 11.278 11.5S17.506 23 11.268 23-.01 17.842-.01 11.5Z" clip-rule="evenodd"/>
	</g>

</symbol>
<symbol id="zip" viewBox="0 0 24 24">
	<g clip-path="url(#zip-a)">
		<path fill="#151515" fill-rule="evenodd" d="M.5 4H0v17h24V4H.5ZM1 20V5h22v15H1ZM9.72 9.428l-3.013 6.42H9.78V17H5.231v-.84l3-6.408h-2.82V8.6H9.72v.828ZM10.917 17V8.6h1.212V17h-1.212Zm2.883-8.4h2.22c1.644 0 2.58.996 2.58 2.712 0 1.764-.936 2.736-2.58 2.736h-1.008V17H13.8V8.6Zm1.212 4.296h.996c.912 0 1.356-.504 1.356-1.584 0-1.032-.444-1.56-1.356-1.56h-.996v3.144Z" clip-rule="evenodd"/>
	</g>

</symbol>
</svg>
